<?xml version="1.0" encoding="UTF-8" standalone="no"?>
<svg
   xmlns:dc="http://purl.org/dc/elements/1.1/"
   xmlns:cc="http://creativecommons.org/ns#"
   xmlns:rdf="http://www.w3.org/1999/02/22-rdf-syntax-ns#"
   xmlns:svg="http://www.w3.org/2000/svg"
   xmlns="http://www.w3.org/2000/svg"
   xmlns:sodipodi="http://sodipodi.sourceforge.net/DTD/sodipodi-0.dtd"
   xmlns:inkscape="http://www.inkscape.org/namespaces/inkscape"
   version="1.1"
   id="Capa_1"
   x="0px"
   y="0px"
   viewBox="0 0 385.331 385.331"
   style="enable-background:new 0 0 385.331 385.331;"
   xml:space="preserve"
   sodipodi:docname="fullscreen.svg"
   inkscape:version="1.0.1 (3bc2e813f5, 2020-09-07)"><metadata
   id="metadata60"><rdf:RDF><cc:Work
       rdf:about=""><dc:format>image/svg+xml</dc:format><dc:type
         rdf:resource="http://purl.org/dc/dcmitype/StillImage" /><dc:title></dc:title></cc:Work></rdf:RDF></metadata><defs
   id="defs58" /><sodipodi:namedview
   pagecolor="#ffffff"
   bordercolor="#666666"
   borderopacity="1"
   objecttolerance="10"
   gridtolerance="10"
   guidetolerance="10"
   inkscape:pageopacity="0"
   inkscape:pageshadow="2"
   inkscape:window-width="1920"
   inkscape:window-height="1001"
   id="namedview56"
   showgrid="false"
   inkscape:zoom="2.1228503"
   inkscape:cx="87.146985"
   inkscape:cy="209.85936"
   inkscape:window-x="-9"
   inkscape:window-y="-9"
   inkscape:window-maximized="1"
   inkscape:current-layer="Capa_1" />
<g
   id="g23">
	<g
   id="Fullscreen_Exit">
		<path
   d="M264.943,156.665h108.273c6.833,0,11.934-5.39,11.934-12.211c0-6.833-5.101-11.85-11.934-11.838h-96.242V36.181    c0-6.833-5.197-12.03-12.03-12.03s-12.03,5.197-12.03,12.03v108.273c0,0.036,0.012,0.06,0.012,0.084    c0,0.036-0.012,0.06-0.012,0.096C252.913,151.347,258.23,156.677,264.943,156.665z"
   id="path2" />
		<path
   d="M120.291,24.247c-6.821,0-11.838,5.113-11.838,11.934v96.242H12.03c-6.833,0-12.03,5.197-12.03,12.03    c0,6.833,5.197,12.03,12.03,12.03h108.273c0.036,0,0.06-0.012,0.084-0.012c0.036,0,0.06,0.012,0.096,0.012    c6.713,0,12.03-5.317,12.03-12.03V36.181C132.514,29.36,127.124,24.259,120.291,24.247z"
   id="path4" />
		<path
   d="M120.387,228.666H12.115c-6.833,0.012-11.934,5.39-11.934,12.223c0,6.833,5.101,11.85,11.934,11.838h96.242v96.423    c0,6.833,5.197,12.03,12.03,12.03c6.833,0,12.03-5.197,12.03-12.03V240.877c0-0.036-0.012-0.06-0.012-0.084    c0-0.036,0.012-0.06,0.012-0.096C132.418,233.983,127.1,228.666,120.387,228.666z"
   id="path6" />
		<path
   d="M373.3,228.666H265.028c-0.036,0-0.06,0.012-0.084,0.012c-0.036,0-0.06-0.012-0.096-0.012    c-6.713,0-12.03,5.317-12.03,12.03v108.273c0,6.833,5.39,11.922,12.223,11.934c6.821,0.012,11.838-5.101,11.838-11.922v-96.242    H373.3c6.833,0,12.03-5.197,12.03-12.03S380.134,228.678,373.3,228.666z"
   id="path8" />
	</g>
	<g
   id="g11">
	</g>
	<g
   id="g13">
	</g>
	<g
   id="g15">
	</g>
	<g
   id="g17">
	</g>
	<g
   id="g19">
	</g>
	<g
   id="g21">
	</g>
</g>
<g
   id="g25">
</g>
<g
   id="g27">
</g>
<g
   id="g29">
</g>
<g
   id="g31">
</g>
<g
   id="g33">
</g>
<g
   id="g35">
</g>
<g
   id="g37">
</g>
<g
   id="g39">
</g>
<g
   id="g41">
</g>
<g
   id="g43">
</g>
<g
   id="g45">
</g>
<g
   id="g47">
</g>
<g
   id="g49">
</g>
<g
   id="g51">
</g>
<g
   id="g53">
</g>
<path
   style="fill:#ffffff;stroke-width:0.471065"
   d="m 116.80964,360.34763 c -2.74187,-0.84523 -5.75894,-3.43675 -7.01013,-6.02137 -0.97833,-2.02094 -0.98354,-2.29594 -0.98354,-51.8034 V 252.75118 L 59.236397,252.62095 9.6568281,252.49072 7.0155848,251.2522 c -8.9175916,-4.18159 -8.6026701,-17.05986 0.5214518,-21.32403 2.1176029,-0.98966 2.1783985,-0.99068 58.8830984,-0.99068 52.613545,0 56.888285,0.059 58.472935,0.80692 2.6573,1.25422 4.58086,3.10148 5.96833,5.73158 l 1.27227,2.41173 v 56.7633 c 0,53.56318 -0.0479,56.88736 -0.84913,58.9637 -1.13996,2.95404 -4.26351,5.7764 -7.43526,6.71831 -2.97175,0.88251 -4.21582,0.88509 -7.03964,0.0146 z"
   id="path62" /><path
   style="fill:#ffffff;stroke-width:0.471065"
   d="m 7.9656089,155.51209 c -4.6170696,-1.65039 -7.49454412,-5.87484 -7.49454412,-11.00282 0,-4.83516 2.09616992,-8.34573 6.35937462,-10.65038 l 1.8842591,-1.01862 50.0506335,-0.12612 50.050638,-0.12612 0.005,-49.571214 0.005,-49.571216 1.10574,-2.374574 c 1.96668,-4.223418 5.60169,-6.456112 10.46541,-6.428053 3.55855,0.02053 6.58505,1.343969 8.87833,3.882355 3.26717,3.616366 3.12368,0.592707 2.98434,62.890013 l -0.12554,56.027939 -1.40112,2.52973 c -1.53965,2.77985 -3.54246,4.54567 -6.25272,5.51287 -2.55025,0.91009 -113.971393,0.93515 -116.5142211,0.0262 z"
   id="path64" /><path
   style="fill:#ffffff;stroke-width:0.471065"
   d="m 262.85415,156.1912 c -3.89562,-0.80081 -7.11395,-3.36034 -8.8499,-7.0383 -0.74794,-1.58464 -0.80693,-5.85938 -0.80693,-58.472929 0,-64.151042 -0.28633,-59.334762 3.74855,-63.053981 1.97626,-1.82165 5.6598,-3.366154 8.02807,-3.366154 3.99352,0 8.77574,3.064182 10.57143,6.773581 0.96008,1.983255 0.96966,2.494749 0.96966,51.787177 v 49.784146 l 47.69531,0.003 c 28.71808,0.001 48.81068,0.18538 50.49855,0.46177 3.7075,0.60712 6.70582,2.51382 8.48986,5.39891 1.25863,2.03542 1.42565,2.72378 1.42565,5.87586 0,5.32596 -2.21524,8.91375 -6.83044,11.06255 -2.11147,0.98309 -2.33801,0.98723 -57.70544,1.05527 -30.5721,0.0376 -56.32757,-0.0842 -57.23437,-0.27062 z"
   id="path66" /><path
   style="fill:#ffffff;stroke-width:0.471065"
   d="m 260.53911,359.81993 c -1.14372,-0.41976 -2.9845,-1.6682 -4.09062,-2.77431 -3.6941,-3.6941 -3.4867,0.003 -3.4867,-62.15906 0,-61.29275 -0.14922,-58.32865 3.11845,-61.94557 0.90865,-1.00576 2.64552,-2.318 3.8597,-2.91608 l 2.20761,-1.08742 h 56.99884 c 62.95723,0 58.23688,-0.22152 61.95547,2.90746 4.93418,4.15184 4.93418,13.58647 0,17.73831 -3.69358,3.10794 0.16297,2.89388 -54.76339,3.0396 l -49.80675,0.13213 -0.12611,50.07339 -0.12611,50.07339 -1.42565,2.30575 c -2.05161,3.31814 -4.97191,5.00023 -9.04658,5.21082 -2.13552,0.11036 -3.87546,-0.0873 -5.26816,-0.59841 z"
   id="path68" /></svg>
