<?xml version="1.0" encoding="UTF-8" standalone="no"?>
<svg
   xmlns:dc="http://purl.org/dc/elements/1.1/"
   xmlns:cc="http://creativecommons.org/ns#"
   xmlns:rdf="http://www.w3.org/1999/02/22-rdf-syntax-ns#"
   xmlns:svg="http://www.w3.org/2000/svg"
   xmlns="http://www.w3.org/2000/svg"
   xmlns:sodipodi="http://sodipodi.sourceforge.net/DTD/sodipodi-0.dtd"
   xmlns:inkscape="http://www.inkscape.org/namespaces/inkscape"
   version="1.1"
   id="Capa_1"
   x="0px"
   y="0px"
   viewBox="0 0 384.97 384.97"
   style="enable-background:new 0 0 384.97 384.97;"
   xml:space="preserve"
   sodipodi:docname="fullscreen1.svg"
   inkscape:version="1.0.1 (3bc2e813f5, 2020-09-07)"><metadata
   id="metadata60"><rdf:RDF><cc:Work
       rdf:about=""><dc:format>image/svg+xml</dc:format><dc:type
         rdf:resource="http://purl.org/dc/dcmitype/StillImage" /><dc:title></dc:title></cc:Work></rdf:RDF></metadata><defs
   id="defs58" /><sodipodi:namedview
   pagecolor="#ffffff"
   bordercolor="#666666"
   borderopacity="1"
   objecttolerance="10"
   gridtolerance="10"
   guidetolerance="10"
   inkscape:pageopacity="0"
   inkscape:pageshadow="2"
   inkscape:window-width="1920"
   inkscape:window-height="1001"
   id="namedview56"
   showgrid="false"
   inkscape:zoom="2.1248409"
   inkscape:cx="192.485"
   inkscape:cy="190.83782"
   inkscape:window-x="-9"
   inkscape:window-y="-9"
   inkscape:window-maximized="1"
   inkscape:current-layer="Capa_1" />
<g
   id="g23">
	<g
   id="Fullscreen">
		<path
   d="M384.97,12.03c0-6.713-5.317-12.03-12.03-12.03H264.847c-6.833,0-11.922,5.39-11.934,12.223    c0,6.821,5.101,11.838,11.934,11.838h96.062l-0.193,96.519c0,6.833,5.197,12.03,12.03,12.03c6.833-0.012,12.03-5.197,12.03-12.03    l0.193-108.369c0-0.036-0.012-0.06-0.012-0.084C384.958,12.09,384.97,12.066,384.97,12.03z"
   id="path2" />
		<path
   d="M120.496,0H12.403c-0.036,0-0.06,0.012-0.096,0.012C12.283,0.012,12.247,0,12.223,0C5.51,0,0.192,5.317,0.192,12.03    L0,120.399c0,6.833,5.39,11.934,12.223,11.934c6.821,0,11.838-5.101,11.838-11.934l0.192-96.339h96.242    c6.833,0,12.03-5.197,12.03-12.03C132.514,5.197,127.317,0,120.496,0z"
   id="path4" />
		<path
   d="M120.123,360.909H24.061v-96.242c0-6.833-5.197-12.03-12.03-12.03S0,257.833,0,264.667v108.092    c0,0.036,0.012,0.06,0.012,0.084c0,0.036-0.012,0.06-0.012,0.096c0,6.713,5.317,12.03,12.03,12.03h108.092    c6.833,0,11.922-5.39,11.934-12.223C132.057,365.926,126.956,360.909,120.123,360.909z"
   id="path6" />
		<path
   d="M372.747,252.913c-6.833,0-11.85,5.101-11.838,11.934v96.062h-96.242c-6.833,0-12.03,5.197-12.03,12.03    s5.197,12.03,12.03,12.03h108.092c0.036,0,0.06-0.012,0.084-0.012c0.036-0.012,0.06,0.012,0.096,0.012    c6.713,0,12.03-5.317,12.03-12.03V264.847C384.97,258.014,379.58,252.913,372.747,252.913z"
   id="path8" />
	</g>
	<g
   id="g11">
	</g>
	<g
   id="g13">
	</g>
	<g
   id="g15">
	</g>
	<g
   id="g17">
	</g>
	<g
   id="g19">
	</g>
	<g
   id="g21">
	</g>
</g>
<g
   id="g25">
</g>
<g
   id="g27">
</g>
<g
   id="g29">
</g>
<g
   id="g31">
</g>
<g
   id="g33">
</g>
<g
   id="g35">
</g>
<g
   id="g37">
</g>
<g
   id="g39">
</g>
<g
   id="g41">
</g>
<g
   id="g43">
</g>
<g
   id="g45">
</g>
<g
   id="g47">
</g>
<g
   id="g49">
</g>
<g
   id="g51">
</g>
<g
   id="g53">
</g>
<path
   style="fill:#ffffff;stroke-width:0.470623"
   d="M 8.0818056,131.41268 C 7.2205195,131.13707 5.4969801,129.99554 4.2517188,128.87594 0.11365213,125.15546 0.42359548,130.24015 0.45929194,66.660365 0.47958932,30.508186 0.66016788,9.7503823 0.96419149,8.6213246 1.667674,6.0087901 4.1742801,3.0322739 6.8156684,1.6728791 L 9.1517257,0.47062347 65.568034,0.34733034 c 36.861056,-0.0805568 57.027586,0.041308 58.179836,0.35157648 2.59366,0.69839968 5.42999,2.95435378 6.93633,5.51701128 1.13918,1.9380148 1.32437,2.7518804 1.31634,5.7849809 -0.0132,4.986865 -1.90758,8.247497 -6.10876,10.514473 l -1.88249,1.015802 -50.003749,0.125999 -50.003744,0.125999 v 48.442711 c 0,33.241537 -0.161279,49.194727 -0.51396,50.839227 -1.098281,5.1211 -5.980212,8.99272 -11.218361,8.89673 -1.441932,-0.0264 -3.3263838,-0.27355 -4.1876704,-0.54916 z"
   id="path62" /><path
   style="fill:#ffffff;stroke-width:0.470623"
   d="M 8.9387992,384.29497 C 6.6900699,383.61093 4.8384668,382.42112 3.3053524,380.675 -0.00170512,376.90847 0.23531174,381.68176 0.23531174,318.8474 v -56.71013 l 1.31716746,-2.68225 c 4.0406323,-8.22825 15.6971168,-8.77528 20.3862068,-0.9567 0.806611,1.34494 1.598458,3.24336 1.759659,4.21871 0.161201,0.97535 0.295424,23.53381 0.298272,50.12992 l 0.0052,48.35657 h 49.007896 c 37.102417,0 49.478467,0.13903 50.944987,0.57233 2.78392,0.82253 6.51685,4.67005 7.31787,7.5425 1.74004,6.23976 -1.97392,13.28859 -7.86343,14.92425 -2.06207,0.57269 -112.593559,0.62325 -114.4703208,0.0524 z"
   id="path64" /><path
   style="fill:#ffffff;stroke-width:0.470623"
   d="m 260.96072,384.16097 c -6.95974,-2.49981 -10.05632,-10.39753 -6.57851,-16.77829 1.51056,-2.77142 3.50691,-4.53786 6.22458,-5.5077 1.43102,-0.51068 11.11015,-0.63407 51.05316,-0.65081 l 49.28736,-0.0206 0.1281,-49.53312 c 0.12035,-46.53529 0.17939,-49.64706 0.97555,-51.41562 4.23018,-9.39684 17.40962,-9.29173 21.87756,0.17447 0.74723,1.58316 0.80617,5.8539 0.80617,58.41815 0,51.34285 -0.0724,56.86927 -0.76472,58.39154 -1.08734,2.39077 -3.53374,5.02757 -5.77945,6.22926 l -1.92705,1.03118 -56.94544,0.0844 c -39.70997,0.0588 -57.37277,-0.0691 -58.35731,-0.42276 z"
   id="path66" /><path
   style="fill:#ffffff;stroke-width:0.470623"
   d="m 370.06629,132.05139 c -2.25213,-0.57018 -5.62068,-2.6982 -6.72412,-4.24784 -2.45426,-3.4467 -2.37397,-1.59711 -2.37397,-54.680771 V 23.766485 h -49.00789 c -37.10242,0 -49.47848,-0.139036 -50.94499,-0.572332 -2.78392,-0.822536 -6.51685,-4.670057 -7.31787,-7.542504 -1.7514,-6.2805295 2.00453,-13.3395955 7.94936,-14.94037066 1.23025,-0.33127365 20.16183,-0.45021526 58.21986,-0.36577854 l 56.3968,0.12512367 1.92705,1.03117633 c 2.24367,1.2006019 4.73868,3.8871703 5.6618,6.0964887 0.53684,1.2848472 0.64706,11.2009775 0.64706,58.2147095 0,61.522402 0.11563,58.693222 -2.54107,62.176322 -2.31097,3.02984 -8.12498,5.01578 -11.89202,4.06207 z"
   id="path68" /></svg>
