<?xml version="1.0" encoding="UTF-8" standalone="no"?>
<svg
   xmlns:dc="http://purl.org/dc/elements/1.1/"
   xmlns:cc="http://creativecommons.org/ns#"
   xmlns:rdf="http://www.w3.org/1999/02/22-rdf-syntax-ns#"
   xmlns:svg="http://www.w3.org/2000/svg"
   xmlns="http://www.w3.org/2000/svg"
   xmlns:sodipodi="http://sodipodi.sourceforge.net/DTD/sodipodi-0.dtd"
   xmlns:inkscape="http://www.inkscape.org/namespaces/inkscape"
   id="Capa_1"
   enable-background="new 0 0 512.01 512.01"
   height="512"
   viewBox="0 0 512.01 512.01"
   width="512"
   version="1.1"
   sodipodi:docname="speaker2.svg"
   inkscape:version="1.0.1 (3bc2e813f5, 2020-09-07)">
  <metadata
     id="metadata17">
    <rdf:RDF>
      <cc:Work
         rdf:about="">
        <dc:format>image/svg+xml</dc:format>
        <dc:type
           rdf:resource="http://purl.org/dc/dcmitype/StillImage" />
        <dc:title></dc:title>
      </cc:Work>
    </rdf:RDF>
  </metadata>
  <defs
     id="defs15" />
  <sodipodi:namedview
     pagecolor="#ffffff"
     bordercolor="#666666"
     borderopacity="1"
     objecttolerance="10"
     gridtolerance="10"
     guidetolerance="10"
     inkscape:pageopacity="0"
     inkscape:pageshadow="2"
     inkscape:window-width="1920"
     inkscape:window-height="1001"
     id="namedview13"
     showgrid="false"
     inkscape:zoom="1.5976562"
     inkscape:cx="256"
     inkscape:cy="256"
     inkscape:window-x="-9"
     inkscape:window-y="-9"
     inkscape:window-maximized="1"
     inkscape:current-layer="g10" />
  <g
     id="g10">
    <path
       d="m234.603 46.947-134.809 82.058h-84.794c-8.284 0-15 6.716-15 15v224c0 8.284 6.716 15 15 15h84.794l134.808 82.058c29.996 18.259 68.398-3.311 68.398-38.439v-341.238c0-35.116-38.394-56.703-68.397-38.439zm-204.603 112.058h59v194h-59zm243 267.619c0 11.698-12.787 18.908-22.8 12.813l-131.2-79.862v-207.14l131.2-79.861c9.995-6.084 22.8 1.091 22.8 12.813z"
       id="path2" />
    <path
       d="m345.678 217.114c-5.858 5.858-5.858 15.355 0 21.213 9.77 9.771 9.771 25.584 0 35.355-5.858 5.858-5.858 15.355 0 21.213 5.857 5.858 15.355 5.859 21.213 0 21.444-21.444 21.444-56.337 0-77.781-5.858-5.858-15.356-5.858-21.213 0z"
       id="path4" />
    <path
       d="m412.146 171.86c-5.857-5.858-15.355-5.858-21.213 0s-5.858 15.355 0 21.213c34.701 34.701 34.701 91.164 0 125.865-5.858 5.858-5.858 15.355 0 21.213 5.857 5.858 15.355 5.859 21.213 0 46.398-46.398 46.398-121.893 0-168.291z"
       id="path6" />
    <path
       d="m457.4 126.605c-5.857-5.858-15.355-5.858-21.213 0s-5.858 15.355 0 21.213c60.666 60.666 60.666 155.709 0 216.375-5.858 5.858-5.858 15.355 0 21.213 5.857 5.858 15.355 5.859 21.213 0 72.774-72.774 72.851-185.95 0-258.801z"
       id="path8" />
  </g>
  <path
     style="fill:#ffffff;stroke-width:0.625917"
     d="m 252.34542,470.95493 c -4.74087,-0.61502 -9.19705,-2.01379 -13.87109,-4.35403 -1.8934,-0.948 -33.77844,-20.19544 -70.85564,-42.77208 L 100.2056,382.78039 55.53,382.6078 10.854396,382.43521 7.7937441,380.54265 c -4.1006097,-2.53562 -6.407659,-5.95363 -7.17206174,-10.62578 -0.83565273,-5.10764 -0.83565273,-222.7261 0,-227.83374 0.76440274,-4.67215 3.07145204,-8.09016 7.17206174,-10.62578 l 3.0606519,-1.89256 44.675226,-0.17259 44.675228,-0.17259 67.85998,-41.316557 c 37.32298,-22.724106 69.63068,-42.142072 71.79488,-43.151036 11.73539,-5.471108 25.13236,-5.346914 37.1467,0.344362 12.15284,5.756889 21.44413,17.198518 24.48122,30.147043 1.09268,4.658665 1.14318,12.642316 1.14318,180.756578 0,168.11426 -0.0505,176.09791 -1.14318,180.75658 -3.48758,14.86917 -14.64678,27.1006 -29.2593,32.07063 -3.83971,1.30597 -13.21286,2.97635 -15.27304,2.72179 -0.35328,-0.0436 -2.42772,-0.31099 -4.60987,-0.59407 z m 12.10446,-30.60663 c 3.01764,-1.30617 5.60264,-3.81735 7.41744,-7.20562 l 1.34539,-2.51187 V 256 81.369193 l -1.34539,-2.511871 c -3.99842,-7.465131 -12.85031,-10.733337 -20.07752,-7.412816 -1.39084,0.639018 -31.85458,19.029818 -67.6972,40.868444 l -65.16839,39.70659 V 256 359.98046 l 65.1954,39.70659 c 35.85748,21.83863 65.87066,40.07611 66.69596,40.52774 3.68915,2.01883 9.15502,2.07235 13.63431,0.13351 z M 89.506112,256 V 158.66993 H 59.462103 29.418093 V 256 353.33007 h 30.04401 30.044009 z"
     id="path19"
     transform="scale(1.0000195)" />
  <path
     style="fill:#ffffff;stroke-width:0.625917"
     d="m 350.15613,297.38514 c -5.3969,-2.51305 -8.42276,-7.41847 -8.39177,-13.60446 0.0172,-3.42768 1.59508,-6.84563 5.02324,-10.88092 1.46229,-1.72128 3.39173,-4.67873 4.28764,-6.57213 1.44725,-3.05861 1.62892,-4.2104 1.62892,-10.32763 0,-6.11723 -0.18167,-7.26902 -1.62892,-10.32763 -0.89591,-1.8934 -2.82535,-4.85085 -4.28764,-6.57213 -4.76974,-5.61447 -6.03404,-10.29708 -4.32255,-16.00952 2.16003,-7.20954 10.51335,-11.44702 18.30222,-9.28437 6.67069,1.85218 16.37178,15.34984 19.87406,27.65188 1.2433,4.3672 1.46761,6.58477 1.47093,14.54177 0.003,7.95322 -0.21711,10.15437 -1.44166,14.39609 -2.70122,9.35679 -7.9926,18.28773 -14.33914,24.20203 -4.84787,4.51769 -10.40307,5.47486 -16.17533,2.78702 z"
     id="path21"
     transform="scale(1.0000195)" />
  <path
     style="fill:#ffffff;stroke-width:0.625917"
     d="m 396.22408,343.24493 c -6.5081,-2.59736 -10.62557,-10.607 -8.84739,-17.21066 0.80433,-2.98703 1.97142,-4.67541 7.81974,-11.31256 14.34645,-16.2815 21.83815,-36.42631 21.83815,-58.72171 0,-23.41902 -8.18633,-44.31297 -24.0273,-61.32479 -4.83475,-5.1921 -5.83104,-7.27933 -5.85661,-12.26953 -0.018,-3.51104 0.25768,-4.56844 1.87147,-7.17868 2.81414,-4.55177 6.28889,-6.73909 11.20266,-7.05197 2.19652,-0.13986 4.99761,0.077 6.22464,0.48199 6.71657,2.21667 20.7904,20.20913 28.55647,36.50756 19.70821,41.36109 13.77449,89.96724 -15.38261,126.00688 -5.47641,6.76912 -9.56464,10.65974 -12.48207,11.87872 -2.41799,1.0103 -8.59745,1.12053 -10.91715,0.19475 z"
     id="path23"
     transform="scale(1.0000195)" />
</svg>
